#!OML:ASF X:\für Bonn\!DataBase\2005_08_10_Bjorn_Final\c3d\bjorn.ASF
:FULLY-SPECIFIED
:DEGREES
49
root 1.09346 13.8631 2.87284 -167.986 -4.80603 -180.536
lowerback 25.8177 0.885164 5.12768
upperback 9.53429 0.287433 0.0230635
thorax -3.63165 -0.620738 -2.93527
lowerneck -17.1435 -0.140347 1.91416
upperneck -8.56382 -2.0017 -2.63617
head 0.0801027 -1.72084 -1.25874
rclavicle 1.59028e-015 -2.14687e-014
rhumerus 82.401 -4.76104 -57.837
rradius 16.9885
rwrist 33.0019
rhand -20.5079 11.9485
rfingers 7.12502
rthumb 5.84951 -17.9507
lclavicle 1.59028e-015 -2.14687e-014
lhumerus 84.2366 -5.89659 58.2684
lradius 15.1085
lwrist -36.0878
lhand -29.5011 -8.22922
lfingers 7.12502
lthumb -2.83561 21.7317
rfemur 106.878 -165.485 -162.299
rtibia 105.545
rfoot -34.6983 10.732
rtoes -31.7777
lfemur -74.0215 8.07718 -19.0394
ltibia 105.942
lfoot -29.3336 -2.52087
ltoes -28.1006
50
root 1.09496 13.589 2.88229 -168.416 -4.89491 -180.46
lowerback 26.4475 0.874103 5.22568
upperback 9.75202 0.226135 0.108102
thorax -3.69177 -0.689282 -2.88154
lowerneck -17.0793 -0.0499403 2.03527
upperneck -8.81443 -1.93738 -2.72516
head -0.0111269 -1.70644 -1.30104
rclavicle 2.3059e-014 -7.95139e-016
rhumerus 82.2936 -4.78454 -57.0161
rradius 17.0331
rwrist 31.8767
rhand -20.5638 11.8232
rfingers 7.12502
rthumb 5.79552 -18.0776
lclavicle 2.3059e-014 -7.95139e-016
lhumerus 84.163 -5.78813 57.7099
lradius 15.1795
lwrist -35.2973
lhand -29.5215 -7.75142
lfingers 7.12502
lthumb -2.85531 22.2092
rfemur 105.516 -164.673 -162.324
rtibia 108.153
rfoot -34.8722 11.4865
rtoes -32.686
lfemur -75.3791 8.61288 -18.9418
ltibia 108.528
lfoot -29.5178 -3.2338
ltoes -28.3845
51
root 1.0972 13.312 2.89005 -168.87 -4.99258 -180.382
lowerback 27.0874 0.855311 5.38357
upperback 9.96848 0.167482 0.152666
thorax -3.75203 -0.755226 -2.90606
lowerneck -17.0715 0.0189329 2.15927
upperneck -9.00271 -1.8958 -2.7637
head -0.0732543 -1.70099 -1.33053
rclavicle -1.11319e-014 1.31198e-014
rhumerus 82.1385 -4.82215 -56.7416
rradius 17.067
rwrist 31.2162
rhand -20.6601 11.7389
rfingers 7.12502
rthumb 5.70251 -18.1644
lclavicle -1.11319e-014 1.31198e-014
lhumerus 84.0954 -5.74432 57.2395
lradius 15.2386
lwrist -34.637
lhand -29.5131 -7.41171
lfingers 7.12502
lthumb -2.84727 22.549
rfemur 104.16 -163.756 -162.343
rtibia 110.735
rfoot -35.0471 12.2818
rtoes -33.4642
lfemur -76.6923 9.21343 -18.8303
ltibia 111.07
lfoot -29.6971 -4.03248
ltoes -28.5826
52
root 1.09854 13.0352 2.89631 -169.37 -5.07271 -180.302
lowerback 27.7634 0.842552 5.50719
upperback 10.1695 0.112302 0.233209
thorax -3.84419 -0.822892 -2.87113
lowerneck -17.1159 0.0821496 2.21602
upperneck -9.11404 -1.84565 -2.82315
head -0.101627 -1.68796 -1.35654
rclavicle -7.95139e-016 1.03368e-014
rhumerus 81.9863 -4.77494 -56.4427
rradius 17.0872
rwrist 30.5127
rhand -20.6614 11.6348
rfingers 7.12502
rthumb 5.70123 -18.2685
lclavicle -7.95139e-016 1.03368e-014
lhumerus 83.9793 -5.7157 57.2318
lradius 15.1662
lwrist -34.3967
lhand -29.5537 -7.18222
lfingers 7.12502
lthumb -2.88644 22.778
rfemur 102.88 -162.739 -162.395
rtibia 113.261
rfoot -35.2102 13.2592
rtoes -34.0367
lfemur -77.9237 9.9018 -18.7214
ltibia 113.564
lfoot -29.8774 -4.93993
ltoes -28.4976
53
root 1.10018 12.7584 2.9012 -169.86 -5.14457 -180.263
lowerback 28.3946 0.82922 5.63478
upperback 10.3766 0.0531056 0.261084
thorax -3.9048 -0.890027 -2.89438
lowerneck -17.2796 0.141004 2.32696
upperneck -9.14424 -1.80985 -2.87088
head -0.0850904 -1.68365 -1.39177
rclavicle -1.23246e-014 1.35174e-014
rhumerus 81.8349 -4.75443 -56.3464
rradius 17.0693
rwrist 29.9591
rhand -20.6286 11.5263
rfingers 7.12502
rthumb 5.73294 -18.3762
lclavicle -1.23246e-014 1.35174e-014
lhumerus 83.8707 -5.7142 57.2197
lradius 15.1037
lwrist -34.2694
lhand -29.6421 -6.99875
lfingers 7.12502
lthumb -2.97185 22.9603
rfemur 101.583 -161.583 -162.508
rtibia 115.733
rfoot -35.2603 14.5678
rtoes -34.1693
lfemur -79.1513 10.6679 -18.6804
ltibia 116.006
lfoot -30.0777 -5.82324
ltoes -28.4947
54
root 1.10154 12.4807 2.90525 -170.377 -5.21489 -180.223
lowerback 29.0207 0.82275 5.72589
upperback 10.5903 -0.00953699 0.331628
thorax -3.95378 -0.962353 -2.84755
lowerneck -17.5843 0.197996 2.32902
upperneck -9.09548 -1.76213 -2.90934
head -0.0197297 -1.67256 -1.40758
rclavicle 1.98785e-015 -1.51076e-014
rhumerus 81.726 -4.69593 -56.3609
rradius 17.059
rwrist 29.6234
rhand -20.5307 11.4392
rfingers 7.12502
rthumb 5.82748 -18.4607
lclavicle 1.98785e-015 -1.51076e-014
lhumerus 83.7243 -5.68217 57.3988
lradius 15.0128
lwrist -34.2476
lhand -29.7723 -6.93494
lfingers 7.12502
lthumb -3.09757 23.0223
rfemur 100.333 -160.276 -162.648
rtibia 118.16
rfoot -35.2608 16.1168
rtoes -33.9531
lfemur -80.3445 11.5417 -18.651
ltibia 118.4
lfoot -30.2534 -6.81198
ltoes -28.3774
55
root 1.10245 12.2033 2.90661 -170.902 -5.28686 -180.197
lowerback 29.6194 0.808313 5.85084
upperback 10.7901 -0.0707852 0.361726
thorax -4.00101 -1.03051 -2.86441
lowerneck -17.915 0.245795 2.39437
upperneck -8.95988 -1.72564 -2.95011
head 0.0780877 -1.66397 -1.43737
rclavicle -1.23246e-014 -1.66979e-014
rhumerus 81.5565 -4.66418 -56.3965
rradius 17.0377
rwrist 29.4082
rhand -20.375 11.3459
rfingers 7.12502
rthumb 5.97781 -18.5498
lclavicle -1.23246e-014 -1.66979e-014
lhumerus 83.5754 -5.70905 57.5489
lradius 14.9128
lwrist -34.2996
lhand -29.9454 -6.86265
lfingers 7.12502
lthumb -3.26472 23.0921
rfemur 99.1005 -158.777 -162.804
rtibia 120.529
rfoot -35.1614 17.8561
rtoes -33.4584
lfemur -81.5188 12.5255 -18.6636
ltibia 120.761
lfoot -30.4778 -7.80428
ltoes -28.28
